# xmcd CD database file
#
# Track frame offsets:
#	150
#	17402
#	32270
#	48746
#	64814
#	85241
#	97676
#	113687
#	129273
#	149300
#	157278
#	176938
#	191643
#	212266
#
# Disc length: 3099 seconds
#
# Revision: 0
# Processed by: cddbd v1.5.2PL0 Copyright (c) Steve Scherf et al.
# Submitted via: cdripper 1,0,39,0213
#
DISCID=b50c190e
DTITLE=Laura Fygi - Rendez-vous
DYEAR=1900
DGENRE=Jazz
TTITLE0=14 - Dansez Maintenant (Duet with Dave)
TTITLE1=01 - Le Continental
TTITLE2=02 - Le Temps Qui Passe
TTITLE3=03 - Divine Biguine
TTITLE4=04 - Pour Te Plaire
TTITLE5=05 - C'est Si Bon
TTITLE6=06 - Nuages
TTITLE7=07 - Tout Le Jour, Toute La Nuit
TTITLE8=08 - Volons Vers La Lune
TTITLE9=09 - Quelqu'un m'aimera
TTITLE10=10 - Tu Viens Dans Ma Tete
TTITLE11=11 - La Complainte De Mackie
TTITLE12=12 - Autour De Minuit
TTITLE13=13 - Caravane
EXTD=
EXTT0=
EXTT1=
EXTT2=
EXTT3=
EXTT4=
EXTT5=
EXTT6=
EXTT7=
EXTT8=
EXTT9=
EXTT10=
EXTT11=
EXTT12=
EXTT13=
PLAYORDER=
